<svg width="17" height="17" viewBox="0 0 17 17" fill="none" xmlns="http://www.w3.org/2000/svg">
<path fill-rule="evenodd" clip-rule="evenodd" d="M3.475 1.66871C3.82783 0.668742 4.77294 0 5.83333 0C6.89372 0 7.83883 0.668742 8.19167 1.66871H16.6667V3.33538H8.19167C7.83883 4.33534 6.89372 5.00408 5.83333 5.00408C4.77294 5.00408 3.82783 4.33534 3.475 3.33538H0V1.66871H3.475ZM10.8333 5.83333C9.77294 5.83333 8.82783 6.50208 8.475 7.50204H0V9.16871H8.475C8.82783 10.1687 9.77294 10.8374 10.8333 10.8374C11.8937 10.8374 12.8388 10.1687 13.1917 9.16871H16.6667V7.50204H13.1917C12.8388 6.50208 11.8937 5.83333 10.8333 5.83333ZM5.83333 11.6667C4.77294 11.6667 3.82783 12.3354 3.475 13.3354H0V15.002H3.475C3.82783 16.002 4.77294 16.6708 5.83333 16.6708C6.89372 16.6708 7.83883 16.002 8.19167 15.002H16.6667V13.3354H8.19167C7.83883 12.3354 6.89372 11.6667 5.83333 11.6667ZM6.66667 2.50204C6.66667 2.96228 6.29357 3.33538 5.83333 3.33538C5.3731 3.33538 5 2.96228 5 2.50204C5 2.0418 5.3731 1.66871 5.83333 1.66871C6.29357 1.66871 6.66667 2.0418 6.66667 2.50204ZM10.8333 9.16871C11.2936 9.16871 11.6667 8.79561 11.6667 8.33538C11.6667 7.87514 11.2936 7.50204 10.8333 7.50204C10.3731 7.50204 10 7.87514 10 8.33538C10 8.79561 10.3731 9.16871 10.8333 9.16871ZM6.66667 14.1687C6.66667 14.6289 6.29357 15.002 5.83333 15.002C5.3731 15.002 5 14.6289 5 14.1687C5 13.7085 5.3731 13.3354 5.83333 13.3354C6.29357 13.3354 6.66667 13.7085 6.66667 14.1687Z" fill="black"/>
</svg>
