<svg width="72" height="24" viewBox="0 0 72 24" fill="none" xmlns="http://www.w3.org/2000/svg">
<g clip-path="url(#clip0_0_113)">
<path fill-rule="evenodd" clip-rule="evenodd" d="M5.14163 5.33338C5.49446 4.33341 6.43957 3.66467 7.49996 3.66467C8.56035 3.66467 9.50546 4.33341 9.85829 5.33338H18.3333V7.00005H9.85829C9.50546 8.00002 8.56035 8.66876 7.49996 8.66876C6.43957 8.66876 5.49446 8.00002 5.14163 7.00005H1.66663V5.33338H5.14163ZM12.5 9.49801C11.4396 9.49801 10.4945 10.1667 10.1416 11.1667H1.66663V12.8334H10.1416C10.4945 13.8333 11.4396 14.5021 12.5 14.5021C13.5603 14.5021 14.5055 13.8333 14.8583 12.8334H18.3333V11.1667H14.8583C14.5055 10.1667 13.5603 9.49801 12.5 9.49801ZM7.49996 15.3313C6.43957 15.3313 5.49446 16.0001 5.14163 17H1.66663V18.6667H5.14163C5.49446 19.6667 6.43957 20.3354 7.49996 20.3354C8.56035 20.3354 9.50546 19.6667 9.85829 18.6667H18.3333V17H9.85829C9.50546 16.0001 8.56035 15.3313 7.49996 15.3313ZM8.33329 6.16671C8.33329 6.62695 7.9602 7.00005 7.49996 7.00005C7.03972 7.00005 6.66663 6.62695 6.66663 6.16671C6.66663 5.70648 7.03972 5.33338 7.49996 5.33338C7.9602 5.33338 8.33329 5.70648 8.33329 6.16671ZM12.5 12.8334C12.9602 12.8334 13.3333 12.4603 13.3333 12C13.3333 11.5398 12.9602 11.1667 12.5 11.1667C12.0397 11.1667 11.6666 11.5398 11.6666 12C11.6666 12.4603 12.0397 12.8334 12.5 12.8334ZM8.33329 17.8334C8.33329 18.2936 7.9602 18.6667 7.49996 18.6667C7.03972 18.6667 6.66663 18.2936 6.66663 17.8334C6.66663 17.3731 7.03972 17 7.49996 17C7.9602 17 8.33329 17.3731 8.33329 17.8334Z" fill="black"/>
<path d="M37.7614 19H39.5227V12.4943H45.8295V10.9318H39.5227V6.01705H46.483V4.45455H37.7614V19ZM49.2724 19H50.9485V8.09091H49.2724V19ZM50.1246 6.27273C50.7781 6.27273 51.3178 5.76136 51.3178 5.13636C51.3178 4.51136 50.7781 4 50.1246 4C49.4712 4 48.9315 4.51136 48.9315 5.13636C48.9315 5.76136 49.4712 6.27273 50.1246 6.27273ZM55.6946 4.45455H54.0185V19H55.6946V4.45455ZM63.5089 8.09091H61.1793V5.47727H59.5032V8.09091H57.8555V9.51136H59.5032V16.3295C59.5032 18.233 61.0373 19.142 62.4577 19.142C63.0827 19.142 63.4805 19.0284 63.7077 18.9432L63.3668 17.4375C63.2248 17.4659 62.9975 17.5227 62.6282 17.5227C61.8896 17.5227 61.1793 17.2955 61.1793 15.875V9.51136H63.5089V8.09091ZM66.0302 19H67.7063V12.0966C67.7063 10.6193 68.8711 9.53977 70.462 9.53977C70.9094 9.53977 71.3711 9.625 71.4847 9.65341V7.94886C71.293 7.93466 70.8526 7.92045 70.604 7.92045C69.2972 7.92045 68.1609 8.65909 67.7631 9.73864H67.6495V8.09091H66.0302V19Z" fill="#222124"/>
</g>
<defs>
<clipPath id="clip0_0_113">
<rect width="72" height="24" fill="white"/>
</clipPath>
</defs>
</svg>
